<mxfile host="app.diagrams.net" modified="2023-10-09T06:12:28.638Z" agent="Mozilla/5.0 (Windows NT 10.0; Win64; x64) AppleWebKit/537.36 (KHTML, like Gecko) Chrome/116.0.0.0 Safari/537.36" version="21.7.4" etag="NzVIvZk5YES91PnOZ57x" type="github">
  <diagram name="第 1 页" id="16wm2Vw1MgmUl_EgG7UV">
    <mxGraphModel>
      <root>
        <mxCell id="0" />
        <mxCell id="1" parent="0" />
      </root>
    </mxGraphModel>
  </diagram>
</mxfile>
